<svg width="410" height="410" viewBox="0 0 410 410" fill="none" xmlns="http://www.w3.org/2000/svg">
<rect x="123" y="7" width="164" height="211" rx="28" stroke="black" stroke-width="14"/>
<rect x="130" y="34" width="150" height="29" fill="black"/>
<circle cx="327" cy="125" r="10" stroke="black" stroke-width="12"/>
<circle cx="83" cy="125" r="10" stroke="black" stroke-width="12"/>
<path d="M192.177 134L206.004 150.5L195.004 160.5L168.004 134H192.177Z" fill="black"/>
<path d="M174.004 116H241.004C245.974 116 250.004 120.029 250.004 125V125C250.004 129.971 245.974 134 241.004 134H174.004V116Z" fill="black"/>
<path d="M162.6 128.616C160.639 126.672 160.626 123.506 162.571 121.545L167.483 116.592C169.428 114.631 172.593 114.618 174.554 116.563L179.507 121.475C181.468 123.42 181.481 126.585 179.537 128.546L174.624 133.499C172.68 135.46 169.514 135.473 167.553 133.529L162.6 128.616Z" fill="black"/>
<circle cx="200.504" cy="94.5" r="7.5" fill="black"/>
<circle cx="200.504" cy="155.5" r="7.5" fill="black"/>
<path d="M206.5 99L191 116L163.004 121L195.504 89L206.5 99Z" fill="black"/>
<rect x="97" y="118" width="19" height="14" fill="black"/>
<rect x="294" y="118" width="19" height="14" fill="black"/>
<path d="M5.81534 314V247.091H32.6051C37.5275 247.091 41.633 247.821 44.9219 249.28C48.2107 250.739 50.6828 252.765 52.3381 255.357C53.9934 257.927 54.821 260.889 54.821 264.243C54.821 266.857 54.2983 269.154 53.2528 271.136C52.2074 273.097 50.7699 274.708 48.9403 275.972C47.1326 277.213 45.0634 278.095 42.733 278.618V279.271C45.2813 279.38 47.6662 280.099 49.8878 281.428C52.1312 282.756 53.9498 284.618 55.3438 287.014C56.7377 289.388 57.4347 292.22 57.4347 295.509C57.4347 299.059 56.5526 302.228 54.7884 305.016C53.0459 307.782 50.465 309.971 47.0455 311.582C43.6259 313.194 39.4115 314 34.402 314H5.81534ZM19.9616 302.435H31.4943C35.4366 302.435 38.3116 301.683 40.1193 300.18C41.9271 298.656 42.831 296.63 42.831 294.104C42.831 292.252 42.3845 290.619 41.4915 289.203C40.5985 287.787 39.3243 286.677 37.669 285.871C36.0355 285.065 34.0862 284.662 31.821 284.662H19.9616V302.435ZM19.9616 275.089H30.4489C32.3873 275.089 34.108 274.752 35.6108 274.077C37.1354 273.38 38.3333 272.4 39.2045 271.136C40.0975 269.873 40.544 268.359 40.544 266.595C40.544 264.178 39.6837 262.228 37.9631 260.747C36.2642 259.266 33.8466 258.526 30.7102 258.526H19.9616V275.089ZM80.6879 314.947C77.4862 314.947 74.6329 314.392 72.1282 313.281C69.6235 312.149 67.6415 310.482 66.1822 308.283C64.7447 306.061 64.0259 303.295 64.0259 299.984C64.0259 297.196 64.5378 294.855 65.5614 292.96C66.5851 291.065 67.979 289.541 69.7433 288.386C71.5075 287.232 73.5112 286.361 75.7546 285.773C78.0198 285.185 80.3938 284.771 82.8768 284.531C85.7953 284.226 88.1476 283.943 89.9336 283.682C91.7196 283.399 93.0155 282.985 93.8214 282.44C94.6273 281.896 95.0302 281.09 95.0302 280.023V279.827C95.0302 277.758 94.3768 276.157 93.07 275.024C91.7849 273.892 89.9554 273.325 87.5813 273.325C85.0766 273.325 83.0837 273.881 81.6026 274.991C80.1216 276.08 79.1415 277.453 78.6623 279.108L65.7901 278.062C66.4435 275.013 67.7286 272.378 69.6452 270.156C71.5619 267.913 74.034 266.192 77.0614 264.994C80.1107 263.775 83.6391 263.165 87.6467 263.165C90.4345 263.165 93.1026 263.491 95.6509 264.145C98.221 264.798 100.497 265.811 102.479 267.183C104.483 268.555 106.062 270.32 107.216 272.476C108.371 274.61 108.948 277.17 108.948 280.153V314H95.7489V307.041H95.3569C94.551 308.609 93.4729 309.992 92.1225 311.19C90.7721 312.366 89.1495 313.292 87.2546 313.967C85.3597 314.621 83.1708 314.947 80.6879 314.947ZM84.6737 305.342C86.721 305.342 88.5288 304.939 90.0969 304.134C91.6651 303.306 92.8957 302.195 93.7887 300.801C94.6817 299.407 95.1282 297.828 95.1282 296.064V290.739C94.6926 291.022 94.0936 291.283 93.3313 291.523C92.5908 291.741 91.7523 291.947 90.8157 292.143C89.8791 292.318 88.9426 292.481 88.006 292.634C87.0695 292.764 86.2201 292.884 85.4577 292.993C83.8242 293.232 82.3976 293.614 81.1779 294.136C79.9582 294.659 79.0108 295.367 78.3356 296.26C77.6604 297.131 77.3228 298.22 77.3228 299.527C77.3228 301.422 78.0089 302.87 79.381 303.872C80.775 304.852 82.5392 305.342 84.6737 305.342ZM142.419 314.98C137.279 314.98 132.857 313.891 129.154 311.713C125.474 309.513 122.642 306.464 120.66 302.565C118.7 298.667 117.72 294.18 117.72 289.105C117.72 283.965 118.711 279.456 120.693 275.58C122.697 271.681 125.539 268.643 129.22 266.464C132.901 264.265 137.279 263.165 142.353 263.165C146.731 263.165 150.565 263.96 153.853 265.55C157.142 267.14 159.745 269.372 161.662 272.247C163.578 275.122 164.635 278.498 164.831 282.375H151.697C151.327 279.87 150.347 277.856 148.757 276.331C147.189 274.785 145.13 274.011 142.582 274.011C140.426 274.011 138.542 274.599 136.93 275.776C135.34 276.93 134.099 278.618 133.206 280.839C132.313 283.061 131.866 285.751 131.866 288.909C131.866 292.111 132.302 294.833 133.173 297.077C134.066 299.32 135.318 301.03 136.93 302.206C138.542 303.382 140.426 303.97 142.582 303.97C144.172 303.97 145.599 303.643 146.862 302.99C148.147 302.337 149.203 301.389 150.031 300.148C150.88 298.884 151.436 297.371 151.697 295.607H164.831C164.613 299.44 163.567 302.816 161.694 305.734C159.843 308.631 157.284 310.896 154.017 312.53C150.75 314.163 146.884 314.98 142.419 314.98ZM186.352 299.56L186.385 282.865H188.411L204.484 263.818H220.46L198.865 289.04H195.565L186.352 299.56ZM173.741 314V247.091H187.659V314H173.741ZM205.105 314L190.338 292.143L199.616 282.31L221.408 314H205.105ZM227.55 314V247.091H241.696V302.337H270.381V314H227.55ZM279.488 314V263.818H293.405V314H279.488ZM286.479 257.349C284.41 257.349 282.635 256.663 281.154 255.291C279.694 253.897 278.965 252.231 278.965 250.293C278.965 248.376 279.694 246.732 281.154 245.359C282.635 243.965 284.41 243.268 286.479 243.268C288.548 243.268 290.312 243.965 291.772 245.359C293.253 246.732 293.993 248.376 293.993 250.293C293.993 252.231 293.253 253.897 291.772 255.291C290.312 256.663 288.548 257.349 286.479 257.349ZM318.472 284.989V314H304.554V263.818H317.818V272.672H318.406C319.517 269.753 321.379 267.445 323.993 265.746C326.607 264.025 329.776 263.165 333.5 263.165C336.985 263.165 340.023 263.927 342.615 265.452C345.207 266.976 347.222 269.154 348.659 271.986C350.097 274.795 350.815 278.15 350.815 282.048V314H336.898V284.531C336.92 281.46 336.135 279.064 334.545 277.344C332.955 275.601 330.767 274.73 327.979 274.73C326.106 274.73 324.45 275.133 323.013 275.939C321.597 276.745 320.486 277.921 319.68 279.467C318.896 280.992 318.493 282.832 318.472 284.989ZM374.395 299.56L374.428 282.865H376.453L392.527 263.818H408.503L386.908 289.04H383.608L374.395 299.56ZM361.784 314V247.091H375.702V314H361.784ZM393.148 314L378.381 292.143L387.659 282.31L409.451 314H393.148Z" fill="black"/>
<path d="M158.884 364.586H149.863C149.698 363.419 149.362 362.382 148.854 361.476C148.346 360.556 147.693 359.773 146.897 359.128C146.101 358.482 145.181 357.988 144.137 357.645C143.107 357.302 141.988 357.13 140.78 357.13C138.597 357.13 136.695 357.672 135.075 358.757C133.454 359.828 132.198 361.393 131.305 363.453C130.413 365.499 129.967 367.984 129.967 370.909C129.967 373.916 130.413 376.443 131.305 378.489C132.212 380.535 133.475 382.079 135.095 383.123C136.715 384.166 138.59 384.688 140.718 384.688C141.913 384.688 143.018 384.53 144.034 384.214C145.064 383.899 145.977 383.439 146.773 382.835C147.57 382.217 148.229 381.468 148.751 380.589C149.286 379.711 149.657 378.708 149.863 377.582L158.884 377.624C158.651 379.56 158.067 381.427 157.134 383.226C156.214 385.011 154.971 386.611 153.406 388.025C151.854 389.425 150 390.538 147.844 391.362C145.702 392.172 143.279 392.577 140.574 392.577C136.812 392.577 133.447 391.725 130.482 390.023C127.529 388.32 125.195 385.855 123.479 382.629C121.776 379.402 120.925 375.495 120.925 370.909C120.925 366.309 121.79 362.396 123.52 359.169C125.25 355.942 127.598 353.484 130.564 351.795C133.53 350.093 136.866 349.241 140.574 349.241C143.018 349.241 145.284 349.585 147.371 350.271C149.472 350.958 151.332 351.96 152.952 353.278C154.573 354.583 155.891 356.183 156.907 358.077C157.937 359.972 158.596 362.142 158.884 364.586ZM171.757 392H162.2L176.762 349.818H188.255L202.796 392H193.239L182.673 359.457H182.344L171.757 392ZM171.16 375.42H193.734V382.381H171.16V375.42ZM207.873 392V349.818H224.515C227.701 349.818 230.42 350.388 232.672 351.528C234.937 352.654 236.66 354.253 237.841 356.327C239.036 358.386 239.633 360.81 239.633 363.597C239.633 366.398 239.029 368.808 237.821 370.827C236.612 372.831 234.862 374.369 232.569 375.44C230.289 376.511 227.529 377.047 224.289 377.047H213.146V369.879H222.847C224.55 369.879 225.964 369.646 227.09 369.179C228.216 368.712 229.053 368.012 229.603 367.078C230.166 366.144 230.447 364.984 230.447 363.597C230.447 362.197 230.166 361.016 229.603 360.055C229.053 359.094 228.209 358.366 227.069 357.871C225.943 357.363 224.522 357.109 222.806 357.109H216.792V392H207.873ZM230.653 372.804L241.137 392H231.292L221.034 372.804H230.653ZM260.889 392H245.936V349.818H261.012C265.255 349.818 268.908 350.663 271.97 352.352C275.032 354.027 277.387 356.437 279.034 359.581C280.696 362.725 281.527 366.488 281.527 370.868C281.527 375.262 280.696 379.038 279.034 382.196C277.387 385.354 275.018 387.778 271.929 389.467C268.853 391.156 265.173 392 260.889 392ZM254.854 384.359H260.518C263.154 384.359 265.372 383.892 267.171 382.958C268.983 382.011 270.343 380.548 271.249 378.571C272.169 376.58 272.629 374.012 272.629 370.868C272.629 367.751 272.169 365.204 271.249 363.227C270.343 361.249 268.99 359.794 267.191 358.86C265.393 357.926 263.175 357.46 260.539 357.46H254.854V384.359Z" fill="black"/>
</svg>
